<?xml version="1.0" encoding="UTF-8" standalone="no"?>
<svg
   sodipodi:docname="poetainos_logo_v2.svg"
   inkscape:version="1.1.2 (0a00cf5339, 2022-02-04)"
   id="svg8"
   version="1.1"
   viewBox="0 0 135.46666 135.46666"
   height="512"
   width="512"
   inkscape:export-filename="/home/jestrella/Projects/Webapps/Writerhood/resources/images/logo-32.png"
   inkscape:export-xdpi="6"
   inkscape:export-ydpi="6"
   xml:space="preserve"
   xmlns:inkscape="http://www.inkscape.org/namespaces/inkscape"
   xmlns:sodipodi="http://sodipodi.sourceforge.net/DTD/sodipodi-0.dtd"
   xmlns:xlink="http://www.w3.org/1999/xlink"
   xmlns="http://www.w3.org/2000/svg"
   xmlns:svg="http://www.w3.org/2000/svg"
   xmlns:rdf="http://www.w3.org/1999/02/22-rdf-syntax-ns#"
   xmlns:cc="http://creativecommons.org/ns#"
   xmlns:dc="http://purl.org/dc/elements/1.1/"><defs
     id="defs2"><linearGradient
       inkscape:collect="always"
       id="linearGradient997"><stop
         style="stop-color:#593196;stop-opacity:1;"
         offset="0"
         id="stop993" /><stop
         style="stop-color:#2c3237;stop-opacity:1"
         offset="1"
         id="stop995" /></linearGradient><linearGradient
       id="linearGradient985-6"
       inkscape:swatch="gradient"><stop
         style="stop-color:#ffffff;stop-opacity:1;"
         offset="0"
         id="stop981" /><stop
         style="stop-color:#ffffff;stop-opacity:0;"
         offset="1"
         id="stop983" /></linearGradient><clipPath
       id="clipPath958"
       clipPathUnits="userSpaceOnUse"><path
         id="path956"
         d="M 0,0 H 10 V 10 H 0 Z" /></clipPath><linearGradient
       inkscape:collect="always"
       xlink:href="#linearGradient997"
       id="linearGradient1001"
       gradientUnits="userSpaceOnUse"
       x1="0"
       y1="7.4478664"
       x2="16"
       y2="7.4478664"
       gradientTransform="matrix(8.4666658,0,0,10.337817,3e-8,-9.2613529)" /></defs><sodipodi:namedview
     inkscape:window-maximized="1"
     inkscape:window-y="0"
     inkscape:window-x="0"
     inkscape:window-height="1016"
     inkscape:window-width="1856"
     units="px"
     showgrid="false"
     inkscape:document-rotation="0"
     inkscape:current-layer="layer1"
     inkscape:document-units="px"
     inkscape:cy="414.34858"
     inkscape:cx="381.70294"
     inkscape:zoom="0.59732315"
     inkscape:pageshadow="2"
     inkscape:pageopacity="0"
     borderopacity="1.0"
     bordercolor="#666666"
     pagecolor="#ffffff"
     id="base"
     inkscape:showpageshadow="2"
     inkscape:pagecheckerboard="0"
     inkscape:deskcolor="#d1d1d1" /><metadata
     id="metadata5"><rdf:RDF><cc:Work
         rdf:about=""><dc:format>image/svg+xml</dc:format><dc:type
           rdf:resource="http://purl.org/dc/dcmitype/StillImage" /><dc:title /></cc:Work></rdf:RDF></metadata><g
     id="layer1"
     inkscape:groupmode="layer"
     inkscape:label="Capa 1"><g
       id="g952"
       transform="matrix(0.03527778,0,0,-0.04307424,-263.41098,4.0710274)"><g
         clip-path="url(#clipPath958)"
         id="g954" /></g><path
       d="M 67.733331,9.1709767 C 59.393665,0.41484488 47.303266,-0.88772029 36.296601,0.45619588 23.478073,2.037882 10.541003,7.4032094 2.4807398,11.879485 A 4.2333328,5.1689091 0 0 0 0,16.583193 V 130.29918 a 4.2333328,5.1689091 0 0 0 5.9859394,4.7037 c 7.4675956,-4.13512 19.4987336,-9.10762 31.1573286,-10.54456 11.929533,-1.46798 21.928665,0.89939 27.288064,9.06627 a 4.2333328,5.1689091 0 0 0 6.603998,0 c 5.359399,-8.16688 15.358531,-10.53425 27.279596,-9.06627 11.667074,1.43694 23.706654,6.40944 31.165794,10.54456 a 4.2333328,5.1689091 0 0 0 5.98594,-4.7037 V 16.583193 a 4.2333328,5.1689091 0 0 0 -2.48073,-4.703708 C 124.92566,7.4032094 111.98859,2.037882 99.17006,0.45619588 88.163396,-0.8980583 76.072997,0.41484588 67.733331,9.1709767 Z"
       id="path159"
       style="fill:url(#linearGradient1001);fill-opacity:1;stroke:none;stroke-width:1.33567;stroke-linejoin:round;stroke-miterlimit:4;stroke-dasharray:none;stroke-opacity:1;paint-order:markers stroke fill" /><path
       style="mix-blend-mode:normal;fill:#ffffff;fill-opacity:1;fill-rule:evenodd;stroke:#2c3237;stroke-width:0.545295;stroke-miterlimit:4;stroke-dasharray:none;stroke-opacity:1"
       d="m 110.87013,25.442949 c -8.72761,0.58825 -70.043473,6.312111 -74.329746,47.524265 -0.52083,4.405253 -0.81579,8.830342 -1.009624,13.25873 L 65.679651,56.699476 c 1.05345,-1.032739 2.76425,-1.032739 3.817709,0 1.053449,1.032741 1.053449,2.70661 0,3.739349 L 25.758116,103.27526 c -1.581018,1.54827 -1.581018,4.05991 0,5.60821 1.581017,1.54828 4.144682,1.54828 5.727387,0 l 9.629378,-9.430183 c 7.094358,-0.0232 14.183654,-0.41805 21.230817,-1.21614 9.014164,-0.89891 16.352908,-4.373874 22.346633,-9.342599 H 67.676997 l 24.741744,-8.076854 c 1.896218,-2.4604 3.601959,-5.074477 5.132407,-7.786039 H 83.874846 l 17.957524,-8.792339 c 7.06403,-16.842773 8.73269,-34.457202 9.03776,-38.796367 z"
       id="path865" /></g></svg>
