<?xml version="1.0" encoding="UTF-8" standalone="no"?>
<svg
   sodipodi:docname="logo_maskable.svg"
   inkscape:version="1.1.2 (0a00cf5339, 2022-02-04)"
   id="svg8"
   version="1.1"
   viewBox="0 0 135.46666 135.46666"
   height="512"
   width="512"
   inkscape:export-filename="/home/jestrella/Projects/Webapps/Writerhood/resources/images/logo-32.png"
   inkscape:export-xdpi="6"
   inkscape:export-ydpi="6"
   xml:space="preserve"
   xmlns:inkscape="http://www.inkscape.org/namespaces/inkscape"
   xmlns:sodipodi="http://sodipodi.sourceforge.net/DTD/sodipodi-0.dtd"
   xmlns:xlink="http://www.w3.org/1999/xlink"
   xmlns="http://www.w3.org/2000/svg"
   xmlns:svg="http://www.w3.org/2000/svg"
   xmlns:rdf="http://www.w3.org/1999/02/22-rdf-syntax-ns#"
   xmlns:cc="http://creativecommons.org/ns#"
   xmlns:dc="http://purl.org/dc/elements/1.1/"><defs
     id="defs2"><linearGradient
       inkscape:collect="always"
       id="linearGradient997"><stop
         style="stop-color:#593196;stop-opacity:1;"
         offset="0"
         id="stop993" /><stop
         style="stop-color:#2c3237;stop-opacity:1"
         offset="1"
         id="stop995" /></linearGradient><linearGradient
       id="linearGradient985-6"
       inkscape:swatch="gradient"><stop
         style="stop-color:#ffffff;stop-opacity:1;"
         offset="0"
         id="stop981" /><stop
         style="stop-color:#ffffff;stop-opacity:0;"
         offset="1"
         id="stop983" /></linearGradient><clipPath
       id="clipPath958"
       clipPathUnits="userSpaceOnUse"><path
         id="path956"
         d="M 0,0 H 10 V 10 H 0 Z" /></clipPath><linearGradient
       inkscape:collect="always"
       xlink:href="#linearGradient997"
       id="linearGradient1940"
       gradientUnits="userSpaceOnUse"
       gradientTransform="matrix(4.1341142,0,0,5.047762,34.660415,30.138273)"
       x1="0"
       y1="7.4478664"
       x2="16"
       y2="7.4478664" /><filter
       inkscape:collect="always"
       style="color-interpolation-filters:sRGB"
       id="filter1972"
       x="-0.049369119"
       y="-0.049367292"
       width="1.0987382"
       height="1.0987346"><feGaussianBlur
         inkscape:collect="always"
         stdDeviation="1.6437859"
         id="feGaussianBlur1974" /></filter></defs><sodipodi:namedview
     inkscape:window-maximized="1"
     inkscape:window-y="0"
     inkscape:window-x="0"
     inkscape:window-height="1016"
     inkscape:window-width="1862"
     units="px"
     showgrid="false"
     inkscape:document-rotation="0"
     inkscape:current-layer="layer1"
     inkscape:document-units="px"
     inkscape:cy="201.31482"
     inkscape:cx="373.75079"
     inkscape:zoom="1.1946463"
     inkscape:pageshadow="2"
     inkscape:pageopacity="0"
     borderopacity="1.0"
     bordercolor="#666666"
     pagecolor="#ffffff"
     id="base"
     inkscape:showpageshadow="2"
     inkscape:pagecheckerboard="0"
     inkscape:deskcolor="#d1d1d1" /><metadata
     id="metadata5"><rdf:RDF><cc:Work
         rdf:about=""><dc:format>image/svg+xml</dc:format><dc:type
           rdf:resource="http://purl.org/dc/dcmitype/StillImage" /></cc:Work></rdf:RDF></metadata><g
     id="layer1"
     inkscape:groupmode="layer"
     inkscape:label="Capa 1"><g
       id="g1991"
       transform="matrix(0.9101348,0,0,0.9101381,2.8213102,2.8212066)"><path
         d="m 165.84088,-27.787183 c -4.91946,-5.165318 -12.05142,-5.933712 -18.54411,-5.140925 -7.56148,0.933051 -15.19289,4.098104 -19.94753,6.738698 a 2.4971875,3.0491842 0 0 0 -1.46336,2.774758 v 67.082051 a 2.4971875,3.0491842 0 0 0 3.53103,2.77475 c 4.40503,-2.43934 11.50205,-5.37267 18.3793,-6.22033 7.03707,-0.86597 12.93543,0.53056 16.09687,5.34827 a 2.4971875,3.0491842 0 0 0 3.89561,0 c 3.16144,-4.81771 9.0598,-6.21424 16.09188,-5.34827 6.88225,0.84766 13.98424,3.78099 18.38428,6.22033 a 2.4971875,3.0491842 0 0 0 3.53103,-2.77475 v -67.082051 a 2.4971875,3.0491842 0 0 0 -1.46335,-2.774758 c -4.75465,-2.640594 -12.38605,-5.805647 -19.94753,-6.738698 -6.49269,-0.798886 -13.62466,-0.02439 -18.54412,5.140925 z"
         id="path159-7"
         style="mix-blend-mode:normal;fill:#000000;fill-opacity:1;stroke:none;stroke-width:0.787906;stroke-linejoin:round;stroke-miterlimit:4;stroke-dasharray:none;stroke-opacity:1;paint-order:markers stroke fill;filter:url(#filter1972)"
         transform="matrix(0.82775407,0,0,0.82772341,-69.542132,62.138534)" /><g
         id="g952"
         transform="matrix(0.02920133,0,0,-0.03565356,-206.37272,15.037726)"><g
           clip-path="url(#clipPath958)"
           id="g954" /></g><g
         id="g1983"><path
           d="M 67.733332,39.138433 C 63.661229,34.862978 57.757715,34.22696 52.383366,34.883169 46.124318,35.655477 39.80739,38.275265 35.871714,40.460947 a 2.0670571,2.5238811 0 0 0 -1.211299,2.296732 v 55.525384 a 2.0670571,2.5238811 0 0 0 2.922822,2.296727 c 3.646288,-2.0191 9.520867,-4.447086 15.213541,-5.148714 5.824967,-0.716784 10.707355,0.439157 13.32425,4.426888 a 2.0670571,2.5238811 0 0 0 3.224608,0 c 2.616895,-3.987731 7.499284,-5.143672 13.320117,-4.426888 5.696813,0.701628 11.575516,3.129614 15.217668,5.148714 a 2.0670571,2.5238811 0 0 0 2.922829,-2.296727 V 42.757679 A 2.0670571,2.5238811 0 0 0 99.594952,40.460947 C 95.659271,38.275265 89.342346,35.655477 83.083298,34.883169 77.70895,34.221912 71.805435,34.862979 67.733332,39.138433 Z"
           id="path159"
           style="fill:url(#linearGradient1940);fill-opacity:1;stroke:none;stroke-width:0.65218;stroke-linejoin:round;stroke-miterlimit:4;stroke-dasharray:none;stroke-opacity:1;paint-order:markers stroke fill" /><path
           style="mix-blend-mode:normal;fill:#ffffff;fill-opacity:1;fill-rule:evenodd;stroke:#2c3237;stroke-width:0.268878;stroke-miterlimit:4;stroke-dasharray:none;stroke-opacity:1"
           d="m 89.00389,46.880082 c -4.303544,0.290052 -34.538116,3.112357 -36.651658,23.433129 -0.256818,2.17213 -0.402262,4.354041 -0.49784,6.537578 l 14.86628,-14.558827 c 0.519451,-0.50922 1.363039,-0.50922 1.882495,0 0.51945,0.509221 0.51945,1.334567 0,1.843787 L 47.035546,85.257417 c -0.779593,0.763416 -0.779593,2.001849 0,2.76528 0.779592,0.763422 2.043723,0.763422 2.824148,0 l 4.748202,-4.649807 c 3.498196,-0.01144 6.993895,-0.206131 10.468818,-0.599651 4.444844,-0.443233 8.063545,-2.156658 11.019024,-4.606623 h -8.390184 l 12.200041,-3.982512 c 0.935016,-1.213167 1.776109,-2.502109 2.530766,-3.839118 h -6.743722 l 8.854773,-4.335301 c 3.483241,-8.304787 4.30605,-16.99006 4.456478,-19.129603 z"
           id="path865" /></g></g></g></svg>
