<?xml version="1.0" encoding="UTF-8" standalone="no"?>
<svg
   sodipodi:docname="poetainos_logo_v2_maskable.svg"
   inkscape:version="1.1.2 (0a00cf5339, 2022-02-04)"
   id="svg8"
   version="1.1"
   viewBox="0 0 135.46666 135.46666"
   height="512"
   width="512"
   inkscape:export-filename="/home/jestrella/Projects/Webapps/Writerhood/resources/images/logo-32.png"
   inkscape:export-xdpi="6"
   inkscape:export-ydpi="6"
   xml:space="preserve"
   xmlns:inkscape="http://www.inkscape.org/namespaces/inkscape"
   xmlns:sodipodi="http://sodipodi.sourceforge.net/DTD/sodipodi-0.dtd"
   xmlns:xlink="http://www.w3.org/1999/xlink"
   xmlns="http://www.w3.org/2000/svg"
   xmlns:svg="http://www.w3.org/2000/svg"
   xmlns:rdf="http://www.w3.org/1999/02/22-rdf-syntax-ns#"
   xmlns:cc="http://creativecommons.org/ns#"
   xmlns:dc="http://purl.org/dc/elements/1.1/"><defs
     id="defs2"><linearGradient
       inkscape:collect="always"
       id="linearGradient3652"><stop
         style="stop-color:#2c3237;stop-opacity:1"
         offset="0"
         id="stop3648" /><stop
         style="stop-color:#593196;stop-opacity:1"
         offset="1"
         id="stop3650" /></linearGradient><linearGradient
       inkscape:collect="always"
       id="linearGradient997"><stop
         style="stop-color:#593196;stop-opacity:1;"
         offset="0"
         id="stop993" /><stop
         style="stop-color:#2c3237;stop-opacity:1"
         offset="1"
         id="stop995" /></linearGradient><linearGradient
       id="linearGradient985-6"
       inkscape:swatch="gradient"><stop
         style="stop-color:#ffffff;stop-opacity:1;"
         offset="0"
         id="stop981" /><stop
         style="stop-color:#ffffff;stop-opacity:0;"
         offset="1"
         id="stop983" /></linearGradient><clipPath
       id="clipPath958"
       clipPathUnits="userSpaceOnUse"><path
         id="path956"
         d="M 0,0 H 10 V 10 H 0 Z" /></clipPath><linearGradient
       inkscape:collect="always"
       xlink:href="#linearGradient997"
       id="linearGradient1001"
       gradientUnits="userSpaceOnUse"
       x1="0"
       y1="7.4478664"
       x2="16"
       y2="7.4478664"
       gradientTransform="matrix(8.3840045,0,0,10.237266,0.66129002,-8.510782)" /><linearGradient
       inkscape:collect="always"
       xlink:href="#linearGradient3652"
       id="linearGradient3654"
       x1="5.1727511e-11"
       y1="67.733331"
       x2="135.46666"
       y2="67.733331"
       gradientUnits="userSpaceOnUse" /></defs><sodipodi:namedview
     inkscape:window-maximized="1"
     inkscape:window-y="0"
     inkscape:window-x="0"
     inkscape:window-height="1016"
     inkscape:window-width="1856"
     units="px"
     showgrid="false"
     inkscape:document-rotation="0"
     inkscape:current-layer="layer1"
     inkscape:document-units="px"
     inkscape:cy="414.34858"
     inkscape:cx="381.70294"
     inkscape:zoom="0.59732315"
     inkscape:pageshadow="2"
     inkscape:pageopacity="0"
     borderopacity="1.0"
     bordercolor="#666666"
     pagecolor="#ffffff"
     id="base"
     inkscape:showpageshadow="2"
     inkscape:pagecheckerboard="0"
     inkscape:deskcolor="#d1d1d1" /><metadata
     id="metadata5"><rdf:RDF><cc:Work
         rdf:about=""><dc:format>image/svg+xml</dc:format><dc:type
           rdf:resource="http://purl.org/dc/dcmitype/StillImage" /></cc:Work></rdf:RDF></metadata><g
     id="layer1"
     inkscape:groupmode="layer"
     inkscape:label="Capa 1"><g
       id="g952"
       transform="matrix(0.03527778,0,0,-0.04307424,-263.41098,4.0710274)"><g
         clip-path="url(#clipPath958)"
         id="g954" /></g><g
       id="g26538"
       transform="matrix(0.59570281,0,0,0.59570281,27.384395,27.384394)"><path
         d="M 67.733331,9.7422643 C 59.475086,1.0712996 47.502728,-0.2185961 36.603522,1.1122484 23.910143,2.6785501 11.09938,7.9916913 3.11781,12.424428 A 4.1920022,5.1186333 0 0 0 0.66128999,17.082385 V 129.69231 a 4.1920022,5.1186333 0 0 0 5.92749781,4.65795 c 7.3946882,-4.0949 19.3083652,-9.01904 30.8531352,-10.442 11.813063,-1.4537 21.714572,0.89064 27.021647,8.97808 a 4.1920022,5.1186333 0 0 0 6.539522,0 c 5.307075,-8.08744 15.208584,-10.43178 27.013262,-8.97808 11.553166,1.42296 23.475206,6.3471 30.861516,10.442 a 4.1920022,5.1186333 0 0 0 5.9275,-4.65795 V 17.082385 a 4.1920022,5.1186333 0 0 0 -2.45651,-4.657957 C 124.36728,7.9916913 111.55652,2.6785501 98.863139,1.1122484 87.963934,-0.22883355 75.991576,1.0713006 67.733331,9.7422643 Z"
         id="path159"
         style="fill:url(#linearGradient1001);fill-opacity:1;stroke:url(#linearGradient3654);stroke-width:1.32265;stroke-linejoin:round;stroke-miterlimit:4;stroke-dasharray:none;stroke-opacity:1;paint-order:markers stroke fill" /><path
         style="mix-blend-mode:normal;fill:#ffffff;fill-opacity:1;fill-rule:evenodd;stroke:#2c3237;stroke-width:0.545295;stroke-miterlimit:4;stroke-dasharray:none;stroke-opacity:1"
         d="m 110.87013,25.442949 c -8.72761,0.58825 -70.043473,6.312111 -74.329746,47.524265 -0.52083,4.405253 -0.81579,8.830342 -1.009624,13.25873 L 65.679651,56.699476 c 1.05345,-1.032739 2.76425,-1.032739 3.817709,0 1.053449,1.032741 1.053449,2.70661 0,3.739349 L 25.758116,103.27526 c -1.581018,1.54827 -1.581018,4.05991 0,5.60821 1.581017,1.54828 4.144682,1.54828 5.727387,0 l 9.629378,-9.430183 c 7.094358,-0.0232 14.183654,-0.41805 21.230817,-1.21614 9.014164,-0.89891 16.352908,-4.373874 22.346633,-9.342599 H 67.676997 l 24.741744,-8.076854 c 1.896218,-2.4604 3.601959,-5.074477 5.132407,-7.786039 H 83.874846 l 17.957524,-8.792339 c 7.06403,-16.842773 8.73269,-34.457202 9.03776,-38.796367 z"
         id="path865" /></g></g></svg>
