<?xml version="1.0" encoding="UTF-8" standalone="no"?>
<svg
   sodipodi:docname="logo_maskable.svg"
   inkscape:version="1.1.2 (0a00cf5339, 2022-02-04)"
   id="svg8"
   version="1.1"
   viewBox="0 0 135.46666 135.46666"
   height="512"
   width="512"
   inkscape:export-filename="/home/jestrella/Projects/Webapps/Writerhood/resources/images/logo-32.png"
   inkscape:export-xdpi="6"
   inkscape:export-ydpi="6"
   xml:space="preserve"
   xmlns:inkscape="http://www.inkscape.org/namespaces/inkscape"
   xmlns:sodipodi="http://sodipodi.sourceforge.net/DTD/sodipodi-0.dtd"
   xmlns:xlink="http://www.w3.org/1999/xlink"
   xmlns="http://www.w3.org/2000/svg"
   xmlns:svg="http://www.w3.org/2000/svg"
   xmlns:rdf="http://www.w3.org/1999/02/22-rdf-syntax-ns#"
   xmlns:cc="http://creativecommons.org/ns#"
   xmlns:dc="http://purl.org/dc/elements/1.1/"><defs
     id="defs2"><linearGradient
       inkscape:collect="always"
       id="linearGradient997"><stop
         style="stop-color:#593196;stop-opacity:1;"
         offset="0"
         id="stop993" /><stop
         style="stop-color:#2c3237;stop-opacity:1"
         offset="1"
         id="stop995" /></linearGradient><linearGradient
       id="linearGradient985-6"
       inkscape:swatch="gradient"><stop
         style="stop-color:#ffffff;stop-opacity:1;"
         offset="0"
         id="stop981" /><stop
         style="stop-color:#ffffff;stop-opacity:0;"
         offset="1"
         id="stop983" /></linearGradient><clipPath
       id="clipPath958"
       clipPathUnits="userSpaceOnUse"><path
         id="path956"
         d="M 0,0 H 10 V 10 H 0 Z" /></clipPath><linearGradient
       inkscape:collect="always"
       xlink:href="#linearGradient997"
       id="linearGradient1001-3"
       gradientUnits="userSpaceOnUse"
       x1="0"
       y1="7.4478664"
       x2="16"
       y2="7.4478664"
       gradientTransform="matrix(4.994375,0,0,6.0983681,27.778327,22.314497)" /><linearGradient
       inkscape:collect="always"
       xlink:href="#linearGradient997"
       id="linearGradient1940"
       gradientUnits="userSpaceOnUse"
       gradientTransform="matrix(4.994375,0,0,6.0983681,27.778327,22.314497)"
       x1="0"
       y1="7.4478664"
       x2="16"
       y2="7.4478664" /></defs><sodipodi:namedview
     inkscape:window-maximized="1"
     inkscape:window-y="0"
     inkscape:window-x="0"
     inkscape:window-height="1016"
     inkscape:window-width="1862"
     units="px"
     showgrid="false"
     inkscape:document-rotation="0"
     inkscape:current-layer="layer1"
     inkscape:document-units="px"
     inkscape:cy="201.31482"
     inkscape:cx="373.75079"
     inkscape:zoom="1.1946463"
     inkscape:pageshadow="2"
     inkscape:pageopacity="0"
     borderopacity="1.0"
     bordercolor="#666666"
     pagecolor="#ffffff"
     id="base"
     inkscape:showpageshadow="2"
     inkscape:pagecheckerboard="0"
     inkscape:deskcolor="#d1d1d1" /><metadata
     id="metadata5"><rdf:RDF><cc:Work
         rdf:about=""><dc:format>image/svg+xml</dc:format><dc:type
           rdf:resource="http://purl.org/dc/dcmitype/StillImage" /></cc:Work></rdf:RDF></metadata><g
     id="layer1"
     inkscape:groupmode="layer"
     inkscape:label="Capa 1"><g
       id="g864"
       transform="matrix(0.82775407,0,0,0.82772341,11.666792,11.668041)"><g
         id="g952"
         transform="matrix(0.03527778,0,0,-0.04307424,-263.41098,4.0710274)"><g
           clip-path="url(#clipPath958)"
           id="g954" /></g><path
         d="M 67.733331,33.187888 C 62.813871,28.02257 55.681904,27.254176 49.189216,28.046963 41.627734,28.980014 33.996327,32.145067 29.241683,34.785661 a 2.4971875,3.0491842 0 0 0 -1.463356,2.774758 v 67.082051 a 2.4971875,3.0491842 0 0 0 3.531027,2.77475 c 4.405037,-2.43934 11.502048,-5.37267 18.3793,-6.22033 7.037075,-0.86597 12.935431,0.53056 16.096871,5.34827 a 2.4971875,3.0491842 0 0 0 3.895611,0 c 3.16144,-4.81771 9.059797,-6.21424 16.091877,-5.34827 6.882253,0.84766 13.984246,3.78099 18.384287,6.22033 a 2.4971875,3.0491842 0 0 0 3.53103,-2.77475 V 37.560419 a 2.4971875,3.0491842 0 0 0 -1.46335,-2.774758 C 101.47033,32.145067 93.838927,28.980014 86.277445,28.046963 79.784758,27.248077 72.65279,28.022571 67.733331,33.187888 Z"
         id="path159"
         style="fill:url(#linearGradient1940);fill-opacity:1;stroke:none;stroke-width:0.787906;stroke-linejoin:round;stroke-miterlimit:4;stroke-dasharray:none;stroke-opacity:1;paint-order:markers stroke fill" /><path
         style="mix-blend-mode:normal;fill:#ffffff;fill-opacity:1;fill-rule:evenodd;stroke:#2c3237;stroke-width:0.324834;stroke-miterlimit:4;stroke-dasharray:none;stroke-opacity:1"
         d="m 93.430043,42.54083 c -5.199062,0.350422 -41.725094,3.760142 -44.278439,28.310338 -0.310259,2.624222 -0.485968,5.26026 -0.601435,7.898263 l 17.959779,-17.589 c 0.627543,-0.615205 1.646671,-0.615205 2.27422,0 0.627542,0.615207 0.627542,1.612335 0,2.227541 L 42.728577,88.905757 c -0.941817,0.922308 -0.941817,2.418499 0,3.340826 0.941816,0.922315 2.468999,0.922315 3.411821,0 l 5.736247,-5.617586 c 4.226129,-0.01382 8.449243,-0.249034 12.647257,-0.724458 5.369763,-0.535484 9.741474,-2.60553 13.311953,-5.565413 H 67.699772 l 14.738727,-4.811405 c 1.129582,-1.465667 2.145697,-3.02288 3.057389,-4.638165 H 77.348876 L 88.046224,65.651935 C 92.254286,55.618648 93.248312,45.125683 93.430043,42.54083 Z"
         id="path865" /></g></g></svg>
