<?xml version="1.0" encoding="UTF-8" standalone="no"?>
<svg
   sodipodi:docname="logo.svg"
   inkscape:version="1.2.2 (b0a8486541, 2022-12-01)"
   id="svg8"
   version="1.1"
   viewBox="0 0 135.46666 135.46666"
   height="512"
   width="512"
   inkscape:export-filename="/home/jestrella/Projects/Webapps/Writerhood/resources/images/logo-32.png"
   inkscape:export-xdpi="6"
   inkscape:export-ydpi="6"
   xml:space="preserve"
   xmlns:inkscape="http://www.inkscape.org/namespaces/inkscape"
   xmlns:sodipodi="http://sodipodi.sourceforge.net/DTD/sodipodi-0.dtd"
   xmlns:xlink="http://www.w3.org/1999/xlink"
   xmlns="http://www.w3.org/2000/svg"
   xmlns:svg="http://www.w3.org/2000/svg"
   xmlns:rdf="http://www.w3.org/1999/02/22-rdf-syntax-ns#"
   xmlns:cc="http://creativecommons.org/ns#"
   xmlns:dc="http://purl.org/dc/elements/1.1/"><defs
     id="defs2"><linearGradient
       inkscape:collect="always"
       id="linearGradient891"><stop
         style="stop-color:#673ab7;stop-opacity:1;"
         offset="0"
         id="stop887" /><stop
         style="stop-color:#4527a0;stop-opacity:1;"
         offset="1"
         id="stop889" /></linearGradient><linearGradient
       id="linearGradient985-6"
       inkscape:swatch="gradient"><stop
         style="stop-color:#ffffff;stop-opacity:1;"
         offset="0"
         id="stop981" /><stop
         style="stop-color:#ffffff;stop-opacity:0;"
         offset="1"
         id="stop983" /></linearGradient><clipPath
       id="clipPath958"
       clipPathUnits="userSpaceOnUse"><path
         id="path956"
         d="M 0,0 H 10 V 10 H 0 Z" /></clipPath><linearGradient
       inkscape:collect="always"
       xlink:href="#linearGradient891"
       id="linearGradient893"
       x1="0"
       y1="67.73333"
       x2="135.46666"
       y2="67.73333"
       gradientUnits="userSpaceOnUse" /></defs><sodipodi:namedview
     inkscape:window-maximized="1"
     inkscape:window-y="0"
     inkscape:window-x="0"
     inkscape:window-height="1011"
     inkscape:window-width="1856"
     units="px"
     showgrid="false"
     inkscape:document-rotation="0"
     inkscape:current-layer="layer1"
     inkscape:document-units="px"
     inkscape:cy="209.26696"
     inkscape:cx="336.50127"
     inkscape:zoom="0.59732315"
     inkscape:pageshadow="2"
     inkscape:pageopacity="0"
     borderopacity="1.0"
     bordercolor="#666666"
     pagecolor="#ffffff"
     id="base"
     inkscape:showpageshadow="2"
     inkscape:pagecheckerboard="0"
     inkscape:deskcolor="#d1d1d1" /><metadata
     id="metadata5"><rdf:RDF><cc:Work
         rdf:about=""><dc:format>image/svg+xml</dc:format><dc:type
           rdf:resource="http://purl.org/dc/dcmitype/StillImage" /><dc:title /></cc:Work></rdf:RDF></metadata><g
     id="layer1"
     inkscape:groupmode="layer"
     inkscape:label="Capa 1"><circle
       style="font-variation-settings:normal;opacity:1;vector-effect:none;fill:url(#linearGradient893);fill-opacity:1;stroke:none;stroke-width:1.33567;stroke-linecap:butt;stroke-linejoin:round;stroke-miterlimit:4;stroke-dasharray:none;stroke-dashoffset:0;stroke-opacity:0.5;-inkscape-stroke:none;paint-order:markers stroke fill;stop-color:#000000;stop-opacity:1"
       id="path984"
       cx="67.73333"
       cy="67.73333"
       r="67.73333" /><g
       id="g952"
       transform="matrix(0.03527778,0,0,-0.04307424,-263.41098,4.0710274)"><g
         clip-path="url(#clipPath958)"
         id="g954" /></g><g
       id="g3382"
       transform="matrix(0.87963986,0,0,0.8755165,8.1523856,8.431653)"
       style="stroke:#000000;stroke-width:0.302686;stroke-dasharray:none;stroke-opacity:1"><g
         style="fill:#ffffff;stroke:#000000;stroke-width:2.71027;stroke-linecap:round;stroke-linejoin:round;stroke-dasharray:none;stroke-opacity:0.60000002"
         id="g1404"
         transform="matrix(0.11168123,0,0,0.11168123,13.799208,10.129323)"><path
           d="m 108.2,135.6 c 4.6,-5.3 8.8,-10.5 13.4,-15.3 7.8,-8.2 15.6,-16.3 24,-24 15.3,-14.1 31,-27.9 46.6,-41.7 1.5,-1.4 3.3,-2.4 5,-3.5 -0.1,2.2 0.2,4.6 -0.3,6.7 -2.2,9.2 -4.7,18.4 -6.9,27.6 -0.3,1.4 0.7,3 1.1,4.6 0.9,-1.1 2.2,-1.9 2.7,-3.1 2.8,-6.4 5.8,-12.7 8.1,-19.2 3.4,-10.2 11.1,-16.3 19.8,-21.3 23,-13.3 46.6,-25 72.2,-32.3 14.2,-4 28.8,-6.9 43.4,-9.6 9.3,-1.8 18.8,-2.5 28.3,-3.1 10,-0.7 20.1,-1.4 30,-0.9 11.9,0.6 23.6,2.7 35.4,3.8 21.4,1.9 41.8,8.1 62.1,14.2 9.2,2.7 17.9,6.8 26.8,10.2 1.6,0.7 3.3,1 4.8,1.7 0.9,0.4 1.5,1.4 2.2,2.1 -1,0.6 -1.9,1.6 -3,1.8 -6.5,0.8 -13.2,0.9 -19.6,2.1 -11.2,2.2 -22.4,4.7 -33.4,7.6 -21.3,5.6 -41.5,13.9 -60.9,24.4 -15.2,8.3 -29.9,17.5 -42.8,29.2 -3.9,3.5 -7.4,7.8 -11.8,10.4 -4.8,2.9 -10.4,4.6 -15.8,6.3 -17.1,5.4 -34.3,10.7 -51.4,16.1 -1.1,0.3 -2.1,1 -3.2,1.5 1.2,0.5 2.4,1.5 3.4,1.4 6.5,-0.7 13,-1.6 19.5,-2.5 3,-0.4 5.9,-1.2 8.9,-1.4 1.3,0 2.8,1.1 4.1,1.6 -0.9,0.9 -1.8,2.4 -2.9,2.7 -12.8,2.7 -23.2,10 -33.1,17.8 -7.3,5.8 -13.7,12.9 -20.2,19.7 -5.2,5.4 -10.3,11 -14.9,16.9 -8.1,10.5 -16.6,20.9 -23.7,32.1 -13.2,21 -25.3,42.5 -38.3,63.6 -3.3,5.5 -7.7,10.3 -12,15.1 -5.5,6.2 -11.5,12.2 -17.2,18.3 -0.7,0.8 -1,1.9 -1.5,2.8 1.1,-0.2 2.5,-0.2 3.4,-0.7 6.4,-3.6 12.6,-7.3 19,-11 0.9,-0.5 2,-0.6 3,-0.9 0.2,1 0.5,1.9 0.4,2.8 -0.7,11.4 -3.9,22.2 -8.1,32.7 -6.4,16 -15.2,30.9 -26.3,44 -9.9,11.7 -21,22.8 -32.7,32.7 -12.2,10.3 -25.4,19.4 -38.9,28 -9.2,5.8 -19.5,9.8 -29.3,14.7 -5.9,3 -9.3,8 -9.6,14.4 -0.9,22.4 -2.1,44.8 -1.8,67.1 0.1,16 2.5,31.9 3.7,47.9 1.8,23.3 7.1,46.1 13.3,68.5 5.1,18.4 11.6,36.5 18.6,54.3 6.2,15.6 13.6,30.7 21.2,45.7 10.6,20.6 23.4,39.9 36.9,58.7 18.1,25.4 38.9,48.3 61.8,69.3 14.7,13.6 30.7,25.9 46.6,38 24.8,18.9 52,33.8 80.1,46.9 23.4,10.8 47.5,20.1 72.6,26.2 15,3.7 29.9,7.8 45,10.9 10.4,2.1 21.2,3.1 31.8,4.1 13.6,1.2 27.2,2.1 40.8,3 5.8,0.4 11.7,1.3 17.5,0.9 18.5,-1 36.9,-2.3 55.4,-3.9 10.3,-0.9 20.6,-2.1 30.8,-4.1 12.8,-2.5 25.5,-5.7 38.2,-9 10.4,-2.7 20.6,-5.9 30.9,-8.8 1.1,-0.4 2.3,-0.2 3.5,-0.3 -0.9,1.1 -1.6,2.6 -2.7,3.1 -5.1,2.2 -10.2,4.5 -15.5,6.1 -21.7,6.4 -43.3,13.1 -65.2,18.8 -11.9,3 -24.3,4.3 -36.5,6.2 -16.8,2.7 -33.7,4.3 -50.8,4.1 -7.5,-0.1 -15.1,1.1 -22.6,0.8 -15.1,-0.6 -30.2,-1.3 -45.2,-3 -23.3,-2.7 -46.6,-6.5 -69.1,-13 -18.8,-5.5 -37.4,-11.8 -55.6,-18.9 -15.9,-6.3 -31.6,-13.4 -46.6,-21.6 -18,-9.9 -35.6,-20.8 -52.5,-32.5 C 208.1,932 194.6,920.1 181,908.7 173.4,902.5 165.9,896 159.2,888.9 149.6,878.8 140.3,868.3 131.6,857.3 119.8,842.3 108.3,826.8 97.4,811 90.4,801 84.6,790 78.5,779.4 62.1,750.7 50.2,720.1 40.8,688.5 36.5,673.9 33.2,658.9 30,644 c -2.8,-13.4 -4.9,-27 -7,-40.6 -0.8,-5.3 -0.9,-10.7 -1,-16.1 -0.4,-19.2 -1.3,-38.4 -0.9,-57.5 0.3,-11.8 2.4,-23.6 3.9,-35.4 1.1,-9.3 2.2,-18.6 4,-27.8 3,-14.4 5.9,-28.8 10.1,-42.8 5.3,-17.6 11,-35.1 18.2,-52 7.4,-17.3 16.3,-33.9 25.3,-50.5 10.4,-19.1 20.8,-38.2 32.6,-56.4 11.8,-18 24.9,-35.3 38.1,-52.2 11.2,-14.3 23.1,-28 35.3,-41.4 13.9,-15.3 28.3,-30.1 42.8,-44.8 8.8,-8.8 18.3,-17 27.3,-25.6 1.3,-1.1 1.9,-2.9 2.9,-4.4 -1.9,0.7 -4.1,1 -5.4,2.3 -13.6,12.3 -27.4,24.6 -40.5,37.4 -14.9,14.6 -29.5,29.4 -43.6,44.7 -11.5,12.5 -22.4,25.6 -32.9,38.8 -17.4,21.8 -33.6,44.3 -48.4,68 -13.2,21.2 -25.7,42.8 -36.1,65.5 -7.8,17.1 -15,34.5 -21.6,52.1 -4.9,13 -8.5,26.5 -12.4,39.8 -1.1,3.8 -1.1,7.9 -1.8,11.8 -0.3,1.2 -1.3,2.3 -1.9,3.4 -0.7,-0.9 -1.8,-1.8 -2,-2.8 -2.1,-9 -4.2,-18 -6,-27 C 7.2,421.7 5.4,412.9 4,404.1 2.7,396.3 1.9,388.6 1,380.8 0.5,377.1 0.1,373.4 0,369.7 c 0,-1.4 0.9,-2.9 1.4,-4.4 1,1 2.2,1.7 2.7,2.8 2.1,4 3.8,8.1 5.9,12.1 0.6,1.1 1.8,1.9 2.7,2.9 0.4,-1.3 1.5,-2.9 1.1,-4 -3.1,-10.6 -2.4,-21.5 -1.6,-32.1 1,-14.1 2.9,-28.3 5.9,-42 3.4,-15.9 7.8,-31.7 13,-47.1 6.1,-18 14.4,-35.1 24.2,-51.5 5.1,-8.4 9.8,-16.9 14.7,-25.4 0.4,-0.7 1.5,-1.6 2.2,-1.5 0.6,0 1.4,1.1 1.7,1.9 5.7,14.5 11.3,29 17.1,43.5 0.5,1.2 1.9,2 2.8,3.1 0.4,-1.4 1.3,-2.8 1.1,-4.1 -1.5,-7.6 -3.5,-15.2 -4.7,-23 -1.2,-6.8 -1.8,-13.7 -2.2,-20.6 -0.2,-5.3 -1.3,-11.4 0.8,-15.8 3.8,-8.3 9.7,-15.6 14.8,-23.3 1.3,-1.9 2.9,-3.6 4.6,-5.6"
           fill="#000000"
           stroke="none"
           id="path1393"
           style="fill:#ffffff;stroke:#000000;stroke-width:2.71027;stroke-dasharray:none;stroke-opacity:0.60000002" /><path
           d="m 783.9,916.3 c -9.6,6 -18.6,12.5 -28.1,17.9 -12.3,7.1 -24.7,14.4 -37.7,19.9 -19.3,8.2 -38.9,15.6 -58.9,22 -15.2,4.9 -31.1,8 -46.9,11.1 -10.3,2.1 -20.9,2.5 -31.3,4.2 -24,3.8 -48.1,1.8 -72.2,1.7 -13.6,-0.2 -27.2,-3.1 -40.9,-4.8 -2.7,-0.3 -5.4,-0.5 -8.1,-1 -0.7,-0.2 -1.2,-1.3 -1.9,-2 0.8,-0.3 1.6,-0.9 2.3,-0.9 3.4,-0.1 6.8,-0.3 10.2,0 5.6,0.5 11.1,1.6 16.7,1.9 13.5,0.5 27.1,1.5 40.5,0.8 15.6,-0.7 31,-3.1 46.5,-4.8 28.2,-3.1 55.5,-10.7 82.2,-20.1 12.3,-4.3 24.2,-9.8 36.3,-14.9 22.2,-9.4 43.2,-21.2 62.9,-35 12.3,-8.6 24.2,-17.7 35.8,-27 9.3,-7.5 18.6,-15.1 26.7,-23.8 13.2,-14.2 25.9,-29 38.2,-44.1 19,-23.2 34.2,-48.9 47.1,-75.9 10.9,-23.1 20.1,-46.8 26.6,-71.5 3.4,-13.2 6.7,-26.4 8.9,-39.8 2.4,-15.2 4.1,-30.5 5,-45.9 1,-17 1.6,-34.1 0.9,-51.1 -0.6,-15.7 -2.3,-31.4 -4.9,-46.9 -4.7,-27.8 -11.8,-55 -22,-81.4 -10.1,-26.2 -22.3,-51.5 -37.2,-75.6 -11.7,-18.9 -24.3,-37 -39,-53.8 -8,-9.2 -15.6,-19 -24.5,-27.2 -13.4,-12.3 -27.9,-23.5 -41.9,-35.2 -1.9,-1.6 -4,-3.2 -5.9,-5 -0.9,-0.9 -1.5,-2.2 -2.2,-3.4 1.3,0.1 2.9,-0.2 4,0.4 4.7,2.8 9.4,5.6 13.8,8.8 23.6,17.3 45.6,36.3 65.7,57.6 19.4,20.7 37.2,42.6 51.3,67.2 8.8,15.5 17.9,30.9 25.6,46.9 11,23.1 19.7,47.1 25.4,72 3.6,15.9 7,31.8 9.9,47.9 1.5,8.1 1.8,16.4 2.1,24.6 0.5,18.2 1.3,36.4 0.8,54.6 -0.3,13 -2.4,25.9 -3.8,38.9 -3.2,31.9 -12.5,62.3 -23.1,92.4 -4.3,12.1 -10.2,23.7 -15.6,35.5 -9.6,21.2 -21.2,41.2 -35,60 -7.7,10.5 -15.5,21.2 -24.1,31 -11.7,13.2 -23.6,26.3 -36.5,38.3 -12.4,11.6 -26.2,21.7 -39.4,32.5 -1.2,1 -2.5,2 -4.3,3"
           fill="#000000"
           stroke="none"
           id="path1395"
           style="fill:#ffffff;stroke:#000000;stroke-width:2.71027;stroke-dasharray:none;stroke-opacity:0.60000002" /></g><g
         aria-label="P"
         id="text1823-56"
         style="font-weight:bold;font-size:138.478px;font-family:Mallanna;-inkscape-font-specification:'Mallanna Bold';text-align:justify;fill:#ffffff;stroke:#000000;stroke-width:1.68263;stroke-linejoin:round;stroke-dasharray:none;stroke-opacity:0.5;paint-order:markers stroke fill;stop-color:#000000"><path
           d="m 77.011121,28.064396 q 0.830868,-0.138478 4.431296,-0.138478 3.738905,0 8.862591,1.38478 5.262164,1.246302 10.108892,4.292818 4.98521,2.908038 7.89325,8.724114 3.04651,5.677598 3.04651,13.570844 0,13.016931 -10.10889,21.048655 -10.108894,8.031724 -26.726253,8.031724 0,27.003207 -9.554982,27.003207 -6.369988,0 -6.369988,-5.40064 0,-1.66174 1.661736,-4.56977 1.661736,-2.908041 2.354126,-6.646947 0.69239,-3.738906 1.107824,-12.047586 -5.677598,-1.800214 -5.677598,-4.985208 0,-3.184994 2.908038,-3.184994 1.523258,0 3.046516,0.415434 1.800214,-36.973625 2.492604,-40.851009 -7.893246,1.938692 -13.15541,6.369988 -5.123686,4.431296 -5.123686,10.524328 0,3.46195 -1.523258,5.400642 -1.38478,1.938692 -3.600428,1.938692 -4.154339,0 -4.154339,-4.708252 0,-9.278026 8.170201,-15.92497 8.30868,-6.785422 20.633222,-9.139548 2.631082,-8.862592 7.339334,-8.862592 1.938692,0 1.938692,7.754768 z m 23.956689,31.711462 q 0,-12.46302 -7.200852,-18.971486 -7.062378,-6.646944 -17.171271,-7.062378 -2.07717,24.510606 -2.07717,46.113173 1.938692,0.276956 3.046516,0.276956 11.632151,0 17.448227,-5.954554 5.95455,-5.954554 5.95455,-14.401711 z"
           style="font-family:Cookie;-inkscape-font-specification:'Cookie Bold';stroke:#000000;stroke-width:1.68263;stroke-dasharray:none;stroke-opacity:0.5"
           id="path306" /></g></g></g></svg>
